<mxfile host="app.diagrams.net" modified="2020-11-05T22:18:24.089Z" agent="5.0 (Macintosh; Intel Mac OS X 10_15_7) AppleWebKit/605.1.15 (KHTML, like Gecko) Version/14.0 Safari/605.1.15" etag="Gh68xR_aUmhpZUri3n0H" version="13.9.2" type="github">
  <diagram id="tMVKWnmkkTPydvAY8Htz" name="Page-1">
    <mxGraphModel dx="946" dy="529" grid="1" gridSize="10" guides="1" tooltips="1" connect="1" arrows="1" fold="1" page="1" pageScale="1" pageWidth="1100" pageHeight="850" math="0" shadow="0">
      <root>
        <mxCell id="0" />
        <mxCell id="1" parent="0" />
        <mxCell id="GJ_wKHnstQP70bFdGOk4-1" value="" style="rounded=0;whiteSpace=wrap;html=1;" vertex="1" parent="1">
          <mxGeometry x="320" y="260" width="100" height="130" as="geometry" />
        </mxCell>
        <mxCell id="GJ_wKHnstQP70bFdGOk4-3" value="" style="html=1;dashed=0;whitespace=wrap;fillColor=#2875E2;strokeColor=#ffffff;points=[[0.005,0.63,0],[0.1,0.2,0],[0.9,0.2,0],[0.5,0,0],[0.995,0.63,0],[0.72,0.99,0],[0.5,1,0],[0.28,0.99,0]];shape=mxgraph.kubernetes.icon;prIcon=node" vertex="1" parent="1">
          <mxGeometry x="320" y="360" width="40" height="30" as="geometry" />
        </mxCell>
        <mxCell id="GJ_wKHnstQP70bFdGOk4-5" value="" style="html=1;dashed=0;whitespace=wrap;fillColor=#2875E2;strokeColor=#ffffff;points=[[0.005,0.63,0],[0.1,0.2,0],[0.9,0.2,0],[0.5,0,0],[0.995,0.63,0],[0.72,0.99,0],[0.5,1,0],[0.28,0.99,0]];shape=mxgraph.kubernetes.icon;prIcon=pod" vertex="1" parent="1">
          <mxGeometry x="345" y="280" width="50" height="48" as="geometry" />
        </mxCell>
        <mxCell id="GJ_wKHnstQP70bFdGOk4-7" value="app: podinfo" style="text;html=1;align=center;verticalAlign=middle;resizable=0;points=[];autosize=1;" vertex="1" parent="1">
          <mxGeometry x="330" y="330" width="80" height="20" as="geometry" />
        </mxCell>
        <mxCell id="GJ_wKHnstQP70bFdGOk4-11" style="edgeStyle=orthogonalEdgeStyle;rounded=0;orthogonalLoop=1;jettySize=auto;html=1;entryX=0.5;entryY=0;entryDx=0;entryDy=0;entryPerimeter=0;fillColor=#d5e8d4;strokeColor=#82b366;strokeWidth=3;" edge="1" parent="1" source="GJ_wKHnstQP70bFdGOk4-9" target="GJ_wKHnstQP70bFdGOk4-5">
          <mxGeometry relative="1" as="geometry" />
        </mxCell>
        <mxCell id="GJ_wKHnstQP70bFdGOk4-9" value="service layer" style="rounded=1;whiteSpace=wrap;html=1;fillColor=#d5e8d4;strokeColor=#82b366;" vertex="1" parent="1">
          <mxGeometry x="340" y="180" width="260" height="20" as="geometry" />
        </mxCell>
        <mxCell id="GJ_wKHnstQP70bFdGOk4-10" value="app: podinfo" style="text;html=1;align=center;verticalAlign=middle;resizable=0;points=[];autosize=1;" vertex="1" parent="1">
          <mxGeometry x="340" y="180" width="80" height="20" as="geometry" />
        </mxCell>
        <mxCell id="GJ_wKHnstQP70bFdGOk4-15" value="" style="group" vertex="1" connectable="0" parent="1">
          <mxGeometry x="540" y="260" width="100" height="130" as="geometry" />
        </mxCell>
        <mxCell id="GJ_wKHnstQP70bFdGOk4-2" value="" style="rounded=0;whiteSpace=wrap;html=1;" vertex="1" parent="GJ_wKHnstQP70bFdGOk4-15">
          <mxGeometry width="100" height="130" as="geometry" />
        </mxCell>
        <mxCell id="GJ_wKHnstQP70bFdGOk4-4" value="" style="html=1;dashed=0;whitespace=wrap;fillColor=#2875E2;strokeColor=#ffffff;points=[[0.005,0.63,0],[0.1,0.2,0],[0.9,0.2,0],[0.5,0,0],[0.995,0.63,0],[0.72,0.99,0],[0.5,1,0],[0.28,0.99,0]];shape=mxgraph.kubernetes.icon;prIcon=node" vertex="1" parent="GJ_wKHnstQP70bFdGOk4-15">
          <mxGeometry y="100" width="40" height="30" as="geometry" />
        </mxCell>
        <mxCell id="GJ_wKHnstQP70bFdGOk4-6" value="" style="html=1;dashed=0;whitespace=wrap;fillColor=#2875E2;strokeColor=#ffffff;points=[[0.005,0.63,0],[0.1,0.2,0],[0.9,0.2,0],[0.5,0,0],[0.995,0.63,0],[0.72,0.99,0],[0.5,1,0],[0.28,0.99,0]];shape=mxgraph.kubernetes.icon;prIcon=pod" vertex="1" parent="GJ_wKHnstQP70bFdGOk4-15">
          <mxGeometry x="20" y="20" width="50" height="48" as="geometry" />
        </mxCell>
        <mxCell id="GJ_wKHnstQP70bFdGOk4-8" value="app: podinfo" style="text;html=1;align=center;verticalAlign=middle;resizable=0;points=[];autosize=1;" vertex="1" parent="GJ_wKHnstQP70bFdGOk4-15">
          <mxGeometry x="10" y="68" width="80" height="20" as="geometry" />
        </mxCell>
        <mxCell id="GJ_wKHnstQP70bFdGOk4-14" style="edgeStyle=orthogonalEdgeStyle;rounded=0;orthogonalLoop=1;jettySize=auto;html=1;exitX=0.5;exitY=0;exitDx=0;exitDy=0;exitPerimeter=0;startArrow=classic;startFill=1;endArrow=none;endFill=0;fillColor=#d5e8d4;strokeColor=#82b366;strokeWidth=3;" edge="1" parent="1" source="GJ_wKHnstQP70bFdGOk4-6">
          <mxGeometry relative="1" as="geometry">
            <mxPoint x="470" y="200" as="targetPoint" />
          </mxGeometry>
        </mxCell>
      </root>
    </mxGraphModel>
  </diagram>
</mxfile>
